<?xml version="1.0" encoding="UTF-8" standalone="no"?>
<svg width="31px" height="32px" viewBox="0 0 31 32" version="1.1" xmlns="http://www.w3.org/2000/svg" xmlns:xlink="http://www.w3.org/1999/xlink" xmlns:sketch="http://www.bohemiancoding.com/sketch/ns">
    <!-- Generator: Sketch 3.2.2 (9983) - http://www.bohemiancoding.com/sketch -->
    <title>behance</title>
    <desc>Created with Sketch.</desc>
    <defs></defs>
    <g id="Page-1" stroke="none" stroke-width="1" fill="none" fill-rule="evenodd" sketch:type="MSPage">
        <g id="Artboard-1" sketch:type="MSArtboardGroup" transform="translate(-121.000000, -159.000000)">
            <g id="behance" sketch:type="MSLayerGroup" transform="translate(120.000000, 159.000000)">
                <rect id="Rectangle-path" sketch:type="MSShapeGroup" x="0" y="8" width="32" height="16"></rect>
                <path d="M16.2,0.7912 C7.80441873,0.7912 1,7.6008 1,15.9992 C1,24.3992 7.80441873,31.2088 16.2,31.2088 C24.5955813,31.2088 31.4,24.3992 31.4,15.9992 C31.4,7.5992 24.5955813,0.7912 16.2,0.7912 L16.2,0.7912 Z M14.0808258,14.9496 C14.0808258,14.9496 15.6275613,14.8328 15.6275613,13.0008 C15.6275613,11.1688 14.3616,10.2752 12.7578839,10.2752 L7.48015484,10.2752 L7.48015484,20.5136 L12.7578839,20.5136 C12.7578839,20.5136 15.978529,20.616 15.978529,17.492 C15.9793548,17.4912 16.1205677,14.9496 14.0808258,14.9496 L14.0808258,14.9496 Z M9.80645161,12.0944 L12.7578839,12.0944 C12.7578839,12.0944 13.4746839,12.0944 13.4746839,13.1592 C13.4746839,14.2248 13.0526968,14.3792 12.5745548,14.3792 L9.80562581,14.3792 L9.80562581,12.0944 L9.80645161,12.0944 Z M12.6092387,18.6936 L9.80645161,18.6936 L9.80645161,15.9576 L12.7578839,15.9576 C12.7578839,15.9576 13.8273032,15.9432 13.8273032,17.3632 C13.8273032,18.5608 13.0279226,18.684 12.6092387,18.6936 L12.6092387,18.6936 Z M20.2760258,12.88 C16.3757419,12.88 16.3790452,16.8136 16.3790452,16.8136 C16.3790452,16.8136 16.1123097,20.7272 20.2760258,20.7272 C20.2760258,20.7272 23.7460645,20.9288 23.7460645,18.0056 L21.9623226,18.0056 C21.9623226,18.0056 22.0209548,19.1064 20.3354839,19.1064 C20.3354839,19.1064 18.5509161,19.2272 18.5509161,17.3248 L23.8055226,17.3248 C23.8055226,17.324 24.3802839,12.88 20.2760258,12.88 L20.2760258,12.88 Z M21.8624,15.9576 L18.5310968,15.9576 C18.5310968,15.9576 18.7491097,14.3792 20.3156645,14.3792 C21.8813935,14.38 21.8624,15.9576 21.8624,15.9576 L21.8624,15.9576 Z M22.2786065,10.8776 L18.095071,10.8776 L18.095071,12.1392 L22.2786065,12.1392 L22.2786065,10.8776 L22.2786065,10.8776 Z" id="Shape" fill="#000000" sketch:type="MSShapeGroup"></path>
            </g>
        </g>
    </g>
</svg>