<?xml version="1.0" encoding="UTF-8" standalone="no"?>
<svg width="33px" height="22px" viewBox="0 0 33 22" version="1.1" xmlns="http://www.w3.org/2000/svg" xmlns:xlink="http://www.w3.org/1999/xlink" xmlns:sketch="http://www.bohemiancoding.com/sketch/ns">
    <!-- Generator: Sketch 3.2.2 (9983) - http://www.bohemiancoding.com/sketch -->
    <title>behance</title>
    <desc>Created with Sketch.</desc>
    <defs></defs>
    <g id="Page-1" stroke="none" stroke-width="1" fill="none" fill-rule="evenodd" sketch:type="MSPage">
        <g id="Artboard-1" sketch:type="MSArtboardGroup" transform="translate(-133.000000, -147.000000)">
            <g id="behance" sketch:type="MSLayerGroup" transform="translate(133.000000, 143.000000)">
                <rect id="Rectangle-path" sketch:type="MSShapeGroup" x="0" y="0" width="32" height="32"></rect>
                <path d="M13.2816,13.8992 C13.2816,13.8992 16.2784,13.6656 16.2784,10.0016 C16.2784,6.3376 13.8256,4.5504 10.7184,4.5504 L0.4928,4.5504 L0.4928,25.0272 L10.7184,25.0272 C10.7184,25.0272 16.9584,25.232 16.9584,18.984 C16.96,18.9824 17.2336,13.8992 13.2816,13.8992 L13.2816,13.8992 Z M5,8.1888 L10.7184,8.1888 C10.7184,8.1888 12.1072,8.1888 12.1072,10.3184 C12.1072,12.4496 11.2896,12.7584 10.3632,12.7584 L4.9984,12.7584 L4.9984,8.1888 L5,8.1888 Z M10.4304,21.3872 L5,21.3872 L5,15.9152 L10.7184,15.9152 C10.7184,15.9152 12.7904,15.8864 12.7904,18.7264 C12.7904,21.1216 11.2416,21.368 10.4304,21.3872 L10.4304,21.3872 Z M25.2848,9.76 C17.728,9.76 17.7344,17.6272 17.7344,17.6272 C17.7344,17.6272 17.2176,25.4544 25.2848,25.4544 C25.2848,25.4544 32.008,25.8576 32.008,20.0112 L28.552,20.0112 C28.552,20.0112 28.6656,22.2128 25.4,22.2128 C25.4,22.2128 21.9424,22.4544 21.9424,18.6496 L32.1232,18.6496 C32.1232,18.648 33.2368,9.76 25.2848,9.76 L25.2848,9.76 Z M28.3584,15.9152 L21.904,15.9152 C21.904,15.9152 22.3264,12.7584 25.3616,12.7584 C28.3952,12.76 28.3584,15.9152 28.3584,15.9152 L28.3584,15.9152 Z M29.1648,5.7552 L21.0592,5.7552 L21.0592,8.2784 L29.1648,8.2784 L29.1648,5.7552 L29.1648,5.7552 Z" id="Shape" fill="#000000" sketch:type="MSShapeGroup"></path>
            </g>
        </g>
    </g>
</svg>