<?xml version="1.0" encoding="UTF-8" standalone="no"?>
<svg width="32px" height="31px" viewBox="0 0 32 31" version="1.1" xmlns="http://www.w3.org/2000/svg" xmlns:xlink="http://www.w3.org/1999/xlink" xmlns:sketch="http://www.bohemiancoding.com/sketch/ns">
    <!-- Generator: Sketch 3.2.2 (9983) - http://www.bohemiancoding.com/sketch -->
    <title>dribbble2</title>
    <desc>Created with Sketch.</desc>
    <defs></defs>
    <g id="Page-1" stroke="none" stroke-width="1" fill="none" fill-rule="evenodd" sketch:type="MSPage">
        <g id="Artboard-1" sketch:type="MSArtboardGroup" transform="translate(-133.000000, -80.000000)">
            <g id="dribbble2" sketch:type="MSLayerGroup" transform="translate(133.000000, 80.000000)">
                <rect id="Rectangle-path" sketch:type="MSShapeGroup" x="0" y="0" width="32" height="32"></rect>
                <path d="M16.384,15.6112 C16.4384,15.5936 16.4928,15.5776 16.5472,15.5616 C16.416,15.2672 16.2704,14.9648 16.1056,14.6384 C13.1264,15.5184 10.2752,15.5296 9.7664,15.52 C9.7648,15.56 9.7632,15.6 9.7632,15.6384 C9.7632,17.1376 10.3008,18.576 11.2816,19.7056 C11.608,19.1776 13.3376,16.5968 16.384,15.6112 L16.384,15.6112 Z M20.0224,10.9312 C18.896,9.9632 17.4608,9.4288 15.9744,9.4288 C15.5248,9.4288 15.0736,9.4784 14.6288,9.5776 C14.9536,10.0144 15.9472,11.3952 16.88,13.0976 C18.9088,12.3184 19.8288,11.1936 20.0224,10.9312 L20.0224,10.9312 Z M12.2096,20.5696 C13.3024,21.4048 14.6032,21.8464 15.9744,21.8464 C16.7936,21.8464 17.5888,21.6896 18.3408,21.3808 C18.2368,20.7776 17.8736,18.9408 17.04,16.752 C13.6784,17.9408 12.4112,20.176 12.2096,20.5696 L12.2096,20.5696 Z M15.5056,13.5232 C14.5424,11.824 13.5392,10.4256 13.2656,10.0496 C11.5744,10.872 10.3312,12.4368 9.9184,14.2624 L9.944,14.2624 C10.5872,14.2624 12.872,14.2096 15.5056,13.5232 L15.5056,13.5232 Z M18.3712,16.4272 C19.1072,18.472 19.4464,20.176 19.544,20.72 C20.8928,19.7696 21.816,18.3104 22.0928,16.6912 C21.8176,16.6096 20.824,16.3408 19.5728,16.3408 C19.1632,16.3408 18.7584,16.368 18.3712,16.4272 L18.3712,16.4272 Z M15.9728,0.4304 C7.5728,0.4304 0.7648,7.24 0.7648,15.6384 C0.7648,24.0384 7.5728,30.848 15.9728,30.848 C24.3728,30.848 31.1808,24.0384 31.1808,15.6384 C31.1808,7.2384 24.3728,0.4304 15.9728,0.4304 L15.9728,0.4304 Z M15.9728,23.0816 C11.8688,23.0816 8.5296,19.7424 8.5296,15.6384 C8.5296,11.536 11.8688,8.1968 15.9728,8.1968 C20.0768,8.1968 23.416,11.536 23.416,15.6384 C23.4176,19.7424 20.0784,23.0816 15.9728,23.0816 L15.9728,23.0816 Z M17.4336,14.1728 C17.5712,14.456 17.7008,14.7392 17.8176,15.0128 C17.856,15.1024 17.8928,15.192 17.9312,15.2832 C18.3696,15.2304 18.84,15.2032 19.328,15.2032 C20.68,15.2032 21.8048,15.4016 22.1792,15.4768 C22.1456,14.1296 21.6688,12.8208 20.832,11.7712 C20.5776,12.0976 19.5344,13.2976 17.4336,14.1728 L17.4336,14.1728 Z" id="Shape" fill="#000000" sketch:type="MSShapeGroup"></path>
            </g>
        </g>
    </g>
</svg>