<?xml version="1.0" encoding="UTF-8" standalone="no"?>
<svg width="30px" height="26px" viewBox="0 0 30 26" version="1.1" xmlns="http://www.w3.org/2000/svg" xmlns:xlink="http://www.w3.org/1999/xlink" xmlns:sketch="http://www.bohemiancoding.com/sketch/ns">
    <!-- Generator: Sketch 3.2.2 (9983) - http://www.bohemiancoding.com/sketch -->
    <title>github</title>
    <desc>Created with Sketch.</desc>
    <defs></defs>
    <g id="Page-1" stroke="none" stroke-width="1" fill="none" fill-rule="evenodd" sketch:type="MSPage">
        <g id="Artboard-1" sketch:type="MSArtboardGroup" transform="translate(-89.000000, -93.000000)">
            <g id="github" sketch:type="MSLayerGroup" transform="translate(88.000000, 90.000000)">
                <rect id="Rectangle-path" sketch:type="MSShapeGroup" x="0" y="0" width="32" height="32"></rect>
                <path d="M20.9776,18.3456 C19.84,18.3456 18.9168,19.6208 18.9168,21.1952 C18.9168,22.7696 19.84,24.0448 20.9776,24.0448 C22.1136,24.0448 23.0368,22.7696 23.0368,21.1952 C23.0368,19.6208 22.1152,18.3456 20.9776,18.3456 L20.9776,18.3456 Z M28.1488,10.9264 C28.3824,10.3472 28.3952,7.0608 27.144,3.9136 C27.144,3.9136 24.2752,4.2272 19.9328,7.208 C19.0224,6.9568 17.4816,6.8304 15.9424,6.8304 C14.4016,6.8304 12.8608,6.9568 11.9504,7.208 C7.6096,4.2288 4.7408,3.9136 4.7408,3.9136 C3.4896,7.0608 3.5024,10.3472 3.736,10.9264 C2.2672,12.5216 1.368,14.4384 1.368,17.0576 C1.368,28.4416 10.8128,28.624 13.1968,28.624 C13.736,28.624 14.808,28.6256 15.9424,28.6272 C17.0752,28.6256 18.1488,28.624 18.688,28.624 C21.072,28.624 30.5168,28.4432 30.5168,17.0576 C30.5152,14.4384 29.6176,12.5216 28.1488,10.9264 L28.1488,10.9264 Z M15.9856,27.224 L15.896,27.224 C9.9216,27.224 5.2672,26.512 5.2672,20.7056 C5.2672,19.3152 5.7584,18.0224 6.9248,16.952 C8.8704,15.1648 12.1616,16.112 15.896,16.112 C15.9104,16.112 15.9264,16.112 15.9408,16.1104 C15.9552,16.112 15.9712,16.112 15.984,16.112 C19.72,16.112 23.0112,15.1648 24.9552,16.952 C26.1216,18.0224 26.6112,19.3152 26.6112,20.7056 C26.6144,26.5104 21.9616,27.224 15.9856,27.224 L15.9856,27.224 Z M10.9056,18.3456 C9.7696,18.3456 8.8464,19.6208 8.8464,21.1952 C8.8464,22.7696 9.768,24.0448 10.9056,24.0448 C12.0432,24.0448 12.9664,22.7696 12.9664,21.1952 C12.9664,19.6208 12.0432,18.3456 10.9056,18.3456 L10.9056,18.3456 Z" id="Shape" fill="#000000" sketch:type="MSShapeGroup"></path>
            </g>
        </g>
    </g>
</svg>