<?xml version="1.0" encoding="UTF-8" standalone="no"?>
<svg width="31px" height="31px" viewBox="0 0 31 31" version="1.1" xmlns="http://www.w3.org/2000/svg" xmlns:xlink="http://www.w3.org/1999/xlink" xmlns:sketch="http://www.bohemiancoding.com/sketch/ns">
    <!-- Generator: Sketch 3.2.2 (9983) - http://www.bohemiancoding.com/sketch -->
    <title>github2</title>
    <desc>Created with Sketch.</desc>
    <defs></defs>
    <g id="Page-1" stroke="none" stroke-width="1" fill="none" fill-rule="evenodd" sketch:type="MSPage">
        <g id="Artboard-1" sketch:type="MSArtboardGroup" transform="translate(-68.000000, -124.000000)">
            <g id="github2" sketch:type="MSLayerGroup" transform="translate(68.000000, 123.000000)">
                <rect id="Rectangle-path" sketch:type="MSShapeGroup" x="0" y="0" width="32" height="32"></rect>
                <path d="M15.3296,16.1888 L15.3072,16.1888 L15.2848,16.1888 C13.3968,16.1888 11.7344,15.712 10.752,16.6144 C10.1632,17.1568 9.9152,17.808 9.9152,18.512 C9.9152,21.4464 12.2656,21.8064 15.2848,21.8064 L15.3296,21.8064 C18.3488,21.8064 20.6992,21.4464 20.6992,18.512 C20.6992,17.8096 20.4512,17.1568 19.8624,16.6144 C18.88,15.712 17.2176,16.1888 15.3296,16.1888 L15.3296,16.1888 Z M12.7632,20.1984 C12.1888,20.1984 11.7232,19.5552 11.7232,18.7584 C11.7232,17.9648 12.1888,17.32 12.7632,17.32 C13.3376,17.32 13.8032,17.9648 13.8032,18.7584 C13.8032,19.5552 13.3376,20.1984 12.7632,20.1984 L12.7632,20.1984 Z M17.8512,20.1984 C17.2768,20.1984 16.8112,19.5552 16.8112,18.7584 C16.8112,17.9648 17.2784,17.32 17.8512,17.32 C18.4256,17.32 18.8912,17.9648 18.8912,18.7584 C18.8928,19.5552 18.4272,20.1984 17.8512,20.1984 L17.8512,20.1984 Z M15.3072,1.0624 C6.9072,1.0624 0.0992,7.8704 0.0992,16.2704 C0.0992,24.6704 6.9072,31.4784 15.3072,31.4784 C23.7056,31.4784 30.5152,24.6704 30.5152,16.2704 C30.5152,7.8704 23.7056,1.0624 15.3072,1.0624 L15.3072,1.0624 Z M16.6944,22.512 C16.4224,22.512 15.88,22.512 15.3072,22.5136 C14.7344,22.512 14.192,22.512 13.92,22.512 C12.7152,22.512 7.944,22.4192 7.944,16.6672 C7.944,15.3456 8.3968,14.376 9.1408,13.5696 C9.0224,13.2768 9.016,11.616 9.648,10.0256 C9.648,10.0256 11.0976,10.1856 13.2912,11.6912 C13.752,11.5632 14.5296,11.5008 15.3088,11.5008 C16.0864,11.5008 16.8656,11.5632 17.3248,11.6912 C19.5184,10.1856 20.968,10.0256 20.968,10.0256 C21.6,11.616 21.5952,13.2768 21.4752,13.5696 C22.2176,14.376 22.672,15.344 22.672,16.6672 C22.6704,22.4208 17.8992,22.512 16.6944,22.512 L16.6944,22.512 Z" id="Shape" fill="#000000" sketch:type="MSShapeGroup"></path>
            </g>
        </g>
    </g>
</svg>