<?xml version="1.0" encoding="UTF-8" standalone="no"?>
<svg width="29px" height="29px" viewBox="0 0 29 29" version="1.1" xmlns="http://www.w3.org/2000/svg" xmlns:xlink="http://www.w3.org/1999/xlink" xmlns:sketch="http://www.bohemiancoding.com/sketch/ns">
    <!-- Generator: Sketch 3.2.2 (9983) - http://www.bohemiancoding.com/sketch -->
    <title>linkedin</title>
    <desc>Created with Sketch.</desc>
    <defs></defs>
    <g id="Page-1" stroke="none" stroke-width="1" fill="none" fill-rule="evenodd" sketch:type="MSPage">
        <g id="Artboard-1" sketch:type="MSArtboardGroup" transform="translate(-131.000000, -113.000000)">
            <g id="linkedin" sketch:type="MSLayerGroup" transform="translate(129.000000, 112.000000)">
                <rect id="Rectangle-path" sketch:type="MSShapeGroup" x="0" y="0" width="32" height="32"></rect>
                <g id="Group" transform="translate(1.600000, 1.600000)" fill="#000000" sketch:type="MSShapeGroup">
                    <path d="M6.8736,3.0288 C6.8736,4.7136 5.6304,6.0768 3.584,6.0768 C1.6592,6.0768 0.4176,4.712 0.4176,3.0288 C0.4176,1.3056 1.7008,-0.0176 3.6656,-0.0176 C5.6304,-0.0176 6.8336,1.304 6.8736,3.0288 L6.8736,3.0288 Z M0.576,28.096 L0.576,8.4832 L6.6736,8.4832 L6.6736,28.096 L0.576,28.096 L0.576,28.096 Z" id="Shape"></path>
                    <path d="M10.3216,14.7408 C10.3216,12.2944 10.2416,10.248 10.1616,8.4832 L15.4544,8.4832 L15.736,11.2112 L15.856,11.2112 C16.6576,9.9264 18.624,8.0432 21.912,8.0432 C25.9232,8.0432 28.9312,10.7312 28.9312,16.5056 L28.9312,28.096 L22.8352,28.096 L22.8352,17.2272 C22.8352,14.7008 21.952,12.976 19.7472,12.976 C18.0624,12.976 17.0608,14.1392 16.6192,15.264 C16.4576,15.664 16.4192,16.2272 16.4192,16.7872 L16.4192,28.096 L10.3232,28.096 L10.3232,14.7408 L10.3216,14.7408 Z" id="Shape"></path>
                </g>
            </g>
        </g>
    </g>
</svg>