<?xml version="1.0" encoding="UTF-8" standalone="no"?>
<svg width="31px" height="31px" viewBox="0 0 31 31" version="1.1" xmlns="http://www.w3.org/2000/svg" xmlns:xlink="http://www.w3.org/1999/xlink" xmlns:sketch="http://www.bohemiancoding.com/sketch/ns">
    <!-- Generator: Sketch 3.2.2 (9983) - http://www.bohemiancoding.com/sketch -->
    <title>linkedin2</title>
    <desc>Created with Sketch.</desc>
    <defs></defs>
    <g id="Page-1" stroke="none" stroke-width="1" fill="none" fill-rule="evenodd" sketch:type="MSPage">
        <g id="Artboard-1" sketch:type="MSArtboardGroup" transform="translate(-78.000000, -165.000000)">
            <g id="linkedin2" sketch:type="MSLayerGroup" transform="translate(78.000000, 165.000000)">
                <rect id="Rectangle-path" sketch:type="MSShapeGroup" x="0" y="0" width="32" height="32"></rect>
                <path d="M15.6384,0.4304 C7.2384,0.4304 0.4304,7.24 0.4304,15.6384 C0.4304,24.0384 7.2384,30.848 15.6384,30.848 C24.0384,30.848 30.8464,24.0384 30.8464,15.6384 C30.8464,7.2384 24.0384,0.4304 15.6384,0.4304 L15.6384,0.4304 Z M11.9168,21.9408 L8.8368,21.9408 L8.8368,12.032 L11.9168,12.032 L11.9168,21.9408 L11.9168,21.9408 Z M10.3568,10.816 C9.3856,10.816 8.7568,10.1264 8.7568,9.2752 C8.7568,8.4032 9.4048,7.7344 10.3968,7.7344 C11.3904,7.7344 11.9984,8.4032 12.0176,9.2752 C12.0176,10.1264 11.3904,10.816 10.3568,10.816 L10.3568,10.816 Z M23.1632,21.9408 L20.0832,21.9408 L20.0832,16.448 C20.0832,15.1712 19.6384,14.2992 18.5232,14.2992 C17.672,14.2992 17.1664,14.888 16.9424,15.456 C16.8608,15.6592 16.8416,15.9424 16.8416,16.224 L16.8416,21.9392 L13.7616,21.9392 L13.7616,15.1904 C13.7616,13.9552 13.7216,12.9216 13.68,12.0288 L16.3552,12.0288 L16.4976,13.4064 L16.5584,13.4064 C16.9632,12.7584 17.9568,11.8048 19.6192,11.8048 C21.6464,11.8048 23.1648,13.1632 23.1648,16.0816 L23.1648,21.9408 L23.1632,21.9408 Z" id="Shape" fill="#000000" sketch:type="MSShapeGroup"></path>
            </g>
        </g>
    </g>
</svg>