<?xml version="1.0" encoding="UTF-8" standalone="no"?>
<svg width="31px" height="31px" viewBox="0 0 31 31" version="1.1" xmlns="http://www.w3.org/2000/svg" xmlns:xlink="http://www.w3.org/1999/xlink" xmlns:sketch="http://www.bohemiancoding.com/sketch/ns">
    <!-- Generator: Sketch 3.2.2 (9983) - http://www.bohemiancoding.com/sketch -->
    <title>pinterest2</title>
    <desc>Created with Sketch.</desc>
    <defs></defs>
    <g id="Page-1" stroke="none" stroke-width="1" fill="none" fill-rule="evenodd" sketch:type="MSPage">
        <g id="Artboard-1" sketch:type="MSArtboardGroup" transform="translate(-89.000000, -61.000000)">
            <g id="pinterest2" sketch:type="MSLayerGroup" transform="translate(88.000000, 60.000000)">
                <rect id="Rectangle-path" sketch:type="MSShapeGroup" x="0" y="0" width="32" height="32"></rect>
                <path d="M16.6624,1.0624 C8.2624,1.0624 1.4544,7.8704 1.4544,16.2704 C1.4544,24.6704 8.2624,31.4784 16.6624,31.4784 C25.0624,31.4784 31.8704,24.6704 31.8704,16.2704 C31.8704,7.8704 25.0624,1.0624 16.6624,1.0624 L16.6624,1.0624 Z M17.7024,19.8768 C16.728,19.8016 16.3184,19.3184 15.5536,18.8544 C15.1328,21.0576 14.6208,23.1696 13.0992,24.2752 C12.6304,20.944 13.7888,18.4416 14.3264,15.7856 C13.4096,14.2416 14.4368,11.1328 16.3728,11.8992 C18.752,12.8416 14.3104,17.64 17.2928,18.24 C20.4064,18.8656 21.6768,12.8368 19.7472,10.8752 C16.9568,8.0432 11.6256,10.8112 12.28,14.864 C12.4416,15.8544 13.464,16.1568 12.6896,17.5232 C10.904,17.1264 10.3712,15.7184 10.44,13.84 C10.5504,10.768 13.2032,8.6144 15.8608,8.3184 C19.224,7.9424 22.3808,9.552 22.816,12.7152 C23.3056,16.2896 21.2992,20.1552 17.7024,19.8768 L17.7024,19.8768 Z" id="Shape" fill="#000000" sketch:type="MSShapeGroup"></path>
            </g>
        </g>
    </g>
</svg>