<?xml version="1.0" encoding="UTF-8" standalone="no"?>
<svg width="31px" height="31px" viewBox="0 0 31 31" version="1.1" xmlns="http://www.w3.org/2000/svg" xmlns:xlink="http://www.w3.org/1999/xlink" xmlns:sketch="http://www.bohemiancoding.com/sketch/ns">
    <!-- Generator: Sketch 3.2.2 (9983) - http://www.bohemiancoding.com/sketch -->
    <title>twitter2</title>
    <desc>Created with Sketch.</desc>
    <defs></defs>
    <g id="Page-1" stroke="none" stroke-width="1" fill="none" fill-rule="evenodd" sketch:type="MSPage">
        <g id="Artboard-1" sketch:type="MSArtboardGroup" transform="translate(-156.000000, -53.000000)">
            <g id="twitter2" sketch:type="MSLayerGroup" transform="translate(155.000000, 52.000000)">
                <rect id="Rectangle-path" sketch:type="MSShapeGroup" x="0" y="0" width="32" height="32"></rect>
                <path d="M16.3008,1.0624 C7.9008,1.0624 1.0928,7.8704 1.0928,16.2704 C1.0928,24.6704 7.9008,31.4784 16.3008,31.4784 C24.7008,31.4784 31.5088,24.6704 31.5088,16.2704 C31.5088,7.8704 24.7008,1.0624 16.3008,1.0624 L16.3008,1.0624 Z M22.488,13.52 C22.4944,13.6496 22.496,13.7792 22.496,13.9072 C22.496,17.8672 19.4832,22.4304 13.9744,22.4304 C12.2816,22.4304 10.7088,21.9328 9.384,21.0832 C9.6176,21.112 9.856,21.1248 10.0976,21.1248 C11.5008,21.1248 12.792,20.6464 13.8176,19.8432 C12.5072,19.8176 11.4,18.952 11.0192,17.7616 C11.2016,17.7952 11.3888,17.816 11.584,17.816 C11.856,17.816 12.1216,17.7792 12.3728,17.712 C11.0032,17.4352 9.9696,16.224 9.9696,14.7744 L9.9696,14.7376 C10.3728,14.9616 10.8352,15.0976 11.3264,15.112 C10.5232,14.5744 9.9936,13.6576 9.9936,12.6176 C9.9936,12.0672 10.1408,11.5536 10.3984,11.112 C11.8752,12.9248 14.0832,14.1168 16.5712,14.2416 C16.5216,14.0224 16.4944,13.7936 16.4944,13.5584 C16.4944,11.9056 17.8352,10.5632 19.4896,10.5632 C20.3504,10.5632 21.128,10.928 21.6752,11.5088 C22.3584,11.3744 22.9984,11.1264 23.576,10.784 C23.352,11.4832 22.8768,12.0704 22.2608,12.44 C22.8656,12.368 23.4432,12.2064 23.9792,11.968 C23.5808,12.5696 23.072,13.0992 22.488,13.52 L22.488,13.52 Z" id="Shape" fill="#000000" sketch:type="MSShapeGroup"></path>
            </g>
        </g>
    </g>
</svg>